# AST/ASF file generated using VICON BodyLanguage
# -----------------------------------------------
:version 1.10
:name VICON
:units
  mass 1.0
  length 0.45
  angle deg
:documentation
   .ast/.asf automatically generated from VICON data using
   VICON BodyBuilder and BodyLanguage model FoxedUp or BRILLIANT.MOD
:root
   order TX TY TZ RX RY RZ
   axis XYZ
   position 0 0 0  
   orientation 0 0 0 
:bonedata
  begin
     id 1 
     name lhipjoint
     direction 0.627457 -0.725269 0.283342 
     length 2.53237 
     axis 0 0 0  XYZ
  end
  begin
     id 2 
     name lfemur
     direction 0.34202 -0.939693 0  
     length 7.32496  
     axis 0 0 20  XYZ
    dof rx ry rz
    limits (-160.0 20.0)
           (-70.0 70.0)
           (-60.0 70.0)
  end
  begin
     id 3 
     name ltibia
     direction 0.34202 -0.939693 0   
     length 7.69674   
     axis 0 0 20   XYZ
    dof rx
    limits (-10.0 170.0)
  end
  begin
     id 4 
     name lfoot
     direction 0.127289 -0.349722 0.928166   
     length 1.8612   
     axis -90 7.62852e-016 20   XYZ
    dof rx rz
    limits (-45.0 90.0)
           (-70.0 20.0)
  end
  begin
     id 5 
     name ltoes
     direction 1.53561e-011 -4.21864e-011 1   
     length 0.925608   
     axis -90 7.62852e-016 20   XYZ
    dof rx
    limits (-90.0 20.0)
  end
  begin
     id 6 
     name rhipjoint
     direction -0.609094 -0.738725 0.288599   
     length 2.48624  
     axis 0 0 0  XYZ 
  end
  begin
     id 7 
     name rfemur
     direction -0.34202 -0.939693 0   
     length 7.44259   
     axis 0 0 -20   XYZ
    dof rx ry rz
    limits (-160.0 20.0)
           (-70.0 70.0)
           (-70.0 60.0)
  end
  begin
     id 8 
     name rtibia
     direction -0.34202 -0.939693 0   
     length 7.7781   
     axis 0 0 -20   XYZ
    dof rx
    limits (-10.0 170.0)
 end
 begin
     id 9 
     name rfoot
     direction -0.107015 -0.294021 0.949789   
     length 2.14741  
     axis -90 -7.62852e-016 -20   XYZ
    dof rx rz
    limits (-45.0 90.0)
           (-20.0 70.0)
  end
  begin
     id 10 
     name rtoes
     direction -1.53497e-011 -4.21924e-011 1   
     length 1.0706   
     axis -90 -7.62852e-016 -20   XYZ
    dof rx
    limits (-90.0 20.0)
  end
  begin
     id 11 
     name lowerback
     direction -0.0142066 0.998112 -0.0597545   
     length 1.86627   
     axis 0 0 0   XYZ
    dof rx ry rz
    limits (-20.0 45.0)
           (-30.0 30.0)
           (-30.0 30.0)
  end
  begin
     id 12 
     name upperback
     direction 0.00547294 0.999744 0.0219437   
     length 1.86272   
     axis 0 0 0   XYZ
    dof rx ry rz
    limits (-20.0 45.0)
           (-30.0 30.0)
           (-30.0 30.0)
  end
  begin
     id 13 
     name thorax
     direction 0.0116162 0.998704 0.0495538   
     length 1.8703   
     axis 0 0 0   XYZ
    dof rx ry rz
    limits (-20.0 45.0)
           (-30.0 30.0)
           (-30.0 30.0)
  end
  begin
     id 14 
     name lowerneck
     direction -0.0106574 0.998739 0.0490586   
     length 1.8074   
     axis 0 0 0   XYZ
    dof rx ry rz
    limits (-20.0 45.0)
           (-30.0 30.0)
           (-30.0 30.0)
  end
  begin
     id 15 
     name upperneck
     direction 0.030527 0.976587 -0.212944   
     length 1.80681   
     axis 0 0 0   XYZ
    dof rx ry rz
    limits (-20.0 45.0)
           (-30.0 30.0)
           (-30.0 30.0)
  end
  begin
     id 16
     name head
     direction 0.00869225 0.997035 -0.0764531  
     length 1.8313  
     axis 0 0 0   XYZ
    dof rx ry rz
    limits (-20.0 45.0)
           (-30.0 30.0)
           (-30.0 30.0)
  end
  begin
     id 17 
     name lclavicle
     direction 0.915958 0.399447 0.0382386  
     length 3.78965  
     axis 0 0 0   XYZ
    dof ry rz
    limits (-20.0 10.0)
           (0.0 20.0)
  end
  begin
     id 18 
     name lhumerus
     direction 1 -4.48967e-011 3.19303e-027   
     length 4.78095   
     axis -180 -30 -90   XYZ
    dof rx ry rz
    limits (-60.0 90.0)
           (-90.0 90.0)
           (-90.0 90.0)
  end
  begin
     id 19
     name lradius
     direction 1 -4.48967e-011 -3.77974e-027   
     length 3.58615   
     axis -180 -30 -90   XYZ
    dof rx
    limits (-10.0 170.0)
  end
  begin
     id 20
     name lwrist
     direction 1 -4.48927e-011 1.2807e-027   
     length 1.79307   
     axis 1.91374e-015 90 90   XYZ
    dof ry
    limits (-180.0 0.0)
 end
  begin
     id 21 
     name lhand
     direction 1 -4.49036e-011 2.5614e-027   
     length 0.659812   
     axis -1.63439e-015 90 90   XYZ
    dof rx rz
    limits (-90.0 90.0)
           (-45.0 45.0)
  end
  begin
     id 22 
     name lfingers
     direction 1 -4.49052e-011 5.1228e-027   
     length 0.531957   
     axis -3.26879e-015 90 90   XYZ
    dof rx
    limits (0.0 90.0)
  end
  begin
     id 23
     name lthumb
     direction 0.707107 -6.35012e-011 0.707107   
     length 0.763787   
     axis -90 45 2.85299e-015   XYZ
    dof rx rz
    limits (-45.0 45.0)
           (-45.0 45.0)
  end
  begin
     id 24 
     name rclavicle
     direction -0.895351 0.435135 0.0948887   
     length 3.70497  
     axis 0 0 0   XYZ 
    dof ry rz
    limits (-10.0 20.0)
           (-20.0 0.0)
  end
  begin
     id 25 
     name rhumerus
     direction -1 -4.48971e-011 2.38946e-027  
     length 4.48913   
     axis -180 30 90   XYZ
    dof rx ry rz
    limits (-90.0 60.0)
           (-90.0 90.0)
           (-90.0 90.0)
  end
  begin
     id 26 
     name rradius
     direction -1 -4.4895e-011 4.38668e-027   
     length 3.7051   
     axis -180 30 90   XYZ
    dof rx
    limits (-10.0 170.0)
  end
  begin
     id 27 
     name rwrist
     direction -1 -4.49007e-011 1.2807e-027   
     length 1.85255   
     axis 1.91374e-015 -90 -90   XYZ
    dof ry
    limits (-180.0 0.0)
  end
  begin
     id 28
     name rhand
     direction -1 -4.48851e-011 2.5614e-027   
     length 0.449136   
     axis -1.63439e-015 -90 -90   XYZ
    dof rx rz
    limits (-90.0 90.0)
           (-45.0 45.0)
  end
  begin
     id 29
     name rfingers
     direction -1 -4.49128e-011 5.1228e-027   
     length 0.362105   
     axis -3.26879e-015 -90 -90   XYZ
    dof rx
    limits (0.0 90.0)
  end
  begin
     id 30
     name rthumb
     direction -0.707107 -6.34851e-011 0.707107   
     length 0.519912   
     axis -90 -45 -2.85299e-015   XYZ
    dof rx rz
    limits (-45.0 45.0)
           (-45.0 45.0)
  end
:hierarchy
  begin
    root lhipjoint rhipjoint lowerback
    lhipjoint lfemur
    lfemur ltibia
    ltibia lfoot
    lfoot ltoes
    rhipjoint rfemur
    rfemur rtibia
    rtibia rfoot
    rfoot rtoes
    lowerback upperback
    upperback thorax
    thorax lowerneck lclavicle rclavicle
    lowerneck upperneck
    upperneck head
    lclavicle lhumerus
    lhumerus lradius
    lradius lwrist
    lwrist lhand lthumb
    lhand lfingers
    rclavicle rhumerus
    rhumerus rradius
    rradius rwrist
    rwrist rhand rthumb
    rhand rfingers
  end

#!OML:ASF I:\Actors\actors\Patient Classification 2\Patient 1\Session 1\actor1.ASF
:FULLY-SPECIFIED
:DEGREES
83
root -0.938726 18.1637 5.66771 -0.275491 -2.89595 -4.68963
lowerback 4.29956 1.10602 3.35954
upperback -1.45651 1.69661 0.657522
thorax -3.83877 0.770082 -1.33184
lowerneck -10.076 -1.2828 -0.161486
upperneck 19.6498 -2.29227 2.64959
head 7.74764 -0.856784 0.677802
rclavicle 5.80824e-015 -3.97569e-015
rhumerus -50.3651 -6.043 -82.9185
rradius 63.1666
rwrist -5.69948
rhand -6.03325 -32.5336
rfingers 7.12502
rthumb 19.8004 -61.5451
lclavicle 5.80824e-015 -3.97569e-015
lhumerus -44.8594 -3.1092 90.692
lradius 51.8538
lwrist 0.946376
lhand 1.80793 -23.7475
lfingers 7.12502
lthumb 27.3209 4.29272
rfemur 0 0 0
rtibia 0
rfoot 0 0
rtoes 0
lfemur 17.7294 -7.07309 -12.5248
ltibia -17.9191
lfoot -4.13558 20.7615
ltoes -9.12897
84
root -0.937862 18.1657 5.65704 -0.234072 -2.98842 -4.65183
lowerback 4.30791 1.10496 3.30088
upperback -1.38347 1.68993 0.650289
thorax -3.76935 0.770019 -1.30525
lowerneck -10.0145 -1.33918 -0.133678
upperneck 19.7087 -2.41748 2.84428
head 7.76046 -0.896128 0.725523
rclavicle 3.5657e-015 8.34896e-015
rhumerus -49.614 -4.93728 -82.5016
rradius 66.7342
rwrist -7.51253
rhand -6.4312 -32.3339
rfingers 7.12502
rthumb 19.4178 -61.3843
lclavicle 3.5657e-015 8.34896e-015
lhumerus -44.9793 -4.298 90.6485
lradius 54.9504
lwrist 3.41205
lhand 2.09024 -23.4738
lfingers 7.12502
lthumb 27.5909 4.52364
rfemur 0 0 0
rtibia 0
rfoot 0 0
rtoes 0
lfemur 17.6786 -7.04138 -12.5717
ltibia -17.9272
lfoot -4.12796 20.8359
ltoes -9.05017
85
root -0.938169 18.1669 5.64589 -0.215255 -3.06873 -4.69284
lowerback 4.32794 1.09456 3.31559
upperback -1.31855 1.67648 0.662629
thorax -3.71393 0.764727 -1.29941
lowerneck -9.84147 -1.36406 -0.0389669
upperneck 19.7753 -2.49566 2.96719
head 7.75336 -0.915849 0.743755
rclavicle 4.93856e-015 -3.97569e-016
rhumerus -48.7183 -4.05499 -81.8754
rradius 70.4296
rwrist -8.90002
rhand -6.44995 -32.1193
rfingers 7.12502
rthumb 19.3998 -61.1716
lclavicle 4.93856e-015 -3.97569e-016
lhumerus -45.0812 -5.5346 90.4507
lradius 58.3848
lwrist 5.88328
lhand 2.15297 -23.3451
lfingers 7.12502
lthumb 27.6509 4.64277
rfemur 0 0 0
rtibia 0
rfoot 0 0
rtoes 0
lfemur 17.6485 -6.97427 -12.5129
ltibia -17.951
lfoot -4.11785 20.8675
ltoes -8.82899
86
root -0.944161 18.1666 5.63738 -0.236043 -3.00578 -4.75312
lowerback 4.31733 1.03225 3.26198
upperback -1.24455 1.58964 0.712362
thorax -3.63796 0.725372 -1.21077
lowerneck -9.67495 -1.38326 0.0244453
upperneck 19.9266 -2.57514 3.14751
head 7.77667 -0.931917 0.786129
rclavicle -8.41729e-015 -1.23246e-014
rhumerus -47.7713 -3.53067 -81.039
rradius 74.4023
rwrist -9.85866
rhand -6.10525 -31.7634
rfingers 7.12502
rthumb 19.7312 -60.782
lclavicle -8.41729e-015 -1.23246e-014
lhumerus -45.1027 -6.75435 90.0857
lradius 62.0937
lwrist 8.23713
lhand 1.87256 -23.5965
lfingers 7.12502
lthumb 27.3827 4.43406
rfemur 0 0 0
rtibia 0
rfoot 0 0
rtoes 0
lfemur 17.6491 -6.91081 -12.3884
ltibia -17.9918
lfoot -4.01977 20.769
ltoes -8.88986
87
root -0.954342 18.1634 5.63318 -0.316768 -2.85188 -4.74025
lowerback 4.25641 0.947204 3.07989
upperback -1.15184 1.46243 0.753936
thorax -3.51836 0.669396 -1.05471
lowerneck -9.64907 -1.43952 -0.0132311
upperneck 20.3262 -2.7332 3.48756
head 7.91325 -0.972477 0.890275
rclavicle 3.01904e-015 3.57812e-015
rhumerus -46.6006 -2.9295 -80.1187
rradius 78.4673
rwrist -11.0503
rhand -6.18811 -30.687
rfingers 7.12502
rthumb 19.6515 -59.7137
lclavicle 3.01904e-015 3.57812e-015
lhumerus -45.0459 -7.93205 89.5458
lradius 66.1184
lwrist 10.5271
lhand 1.80183 -23.5193
lfingers 7.12502
lthumb 27.315 4.52192
rfemur 0 0 0
rtibia 0
rfoot 0 0
rtoes 0
lfemur 17.7152 -6.64786 -12.2965
ltibia -18.0506
lfoot -3.79292 20.3788
ltoes -9.35573
88
root -0.958573 18.1614 5.62634 -0.368435 -2.8538 -4.76413
lowerback 4.22085 0.910002 3.04413
upperback -1.09296 1.40853 0.773108
thorax -3.44077 0.645266 -1.00985
lowerneck -9.6772 -1.56235 -0.250901
upperneck 20.8701 -3.01107 4.07616
head 8.11875 -1.05759 1.09946
rclavicle -7.01027e-015 7.15625e-015
rhumerus -45.0179 -2.10838 -79.1131
rradius 82.6179
rwrist -12.2109
rhand -5.70167 -30.2068
rfingers 7.12502
rthumb 20.1191 -59.185
lclavicle -7.01027e-015 7.15625e-015
lhumerus -44.826 -8.96929 88.7737
lradius 70.3823
lwrist 12.8126
lhand 1.01105 -24.7674
lfingers 7.12502
lthumb 26.5584 3.39055
rfemur 0 0 0
rtibia 0
rfoot 0 0
rtoes 0
lfemur 17.7682 -6.35424 -12.2032
ltibia -18.1002
lfoot -3.63521 20.0928
ltoes -9.53743
89
root -0.957875 18.1611 5.61754 -0.385994 -2.98425 -4.82664
lowerback 4.20739 0.919707 3.12795
upperback -1.07237 1.42577 0.796402
thorax -3.40992 0.652985 -1.03346
lowerneck -9.53691 -1.7624 -0.690095
upperneck 21.3185 -3.40763 4.8832
head 8.27553 -1.19638 1.406
rclavicle 3.84835e-015 -9.14409e-015
rhumerus -43.0968 -1.03141 -77.9874
rradius 86.7067
rwrist -14.0664
rhand -5.25796 -29.4508
rfingers 7.12502
rthumb 20.5455 -58.3836
lclavicle 3.84835e-015 -9.14409e-015
lhumerus -44.3657 -9.998 87.8282
lradius 74.7693
lwrist 15.3922
lhand 0.110315 -25.7448
lfingers 7.12502
lthumb 25.696 2.5407
rfemur 0 0 0
rtibia 0
rfoot 0 0
rtoes 0
lfemur 17.808 -6.32878 -12.1452
ltibia -18.1198
lfoot -3.63215 20.1842
ltoes -9.41978
90
root -0.956317 18.1619 5.6109 -0.398566 -3.05667 -4.81554
lowerback 4.15494 0.92063 3.14376
upperback -1.08474 1.42616 0.800536
thorax -3.39287 0.653045 -1.03715
lowerneck -9.21896 -1.8592 -0.69158
upperneck 21.7641 -3.63032 5.1783
head 8.38059 -1.27009 1.48785
rclavicle 1.58469e-014 0
rhumerus -40.9009 0.255305 -76.7477
rradius 90.6349
rwrist -16.2901
rhand -5.16829 -27.7706
rfingers 7.12502
rthumb 20.6317 -56.694
lclavicle 1.58469e-014 0
lhumerus -43.6944 -11.2211 86.7762
lradius 79.1968
lwrist 18.6957
lhand -1.58625 -27.745
lfingers 7.12502
lthumb 24.0702 0.765434
rfemur 0 0 0
rtibia 0
rfoot 0 0
rtoes 0
lfemur 17.8184 -6.32346 -12.1699
ltibia -18.1133
lfoot -3.62918 20.2481
ltoes -9.48553
91
root -0.954343 18.1633 5.60561 -0.399964 -3.05026 -4.74431
lowerback 4.05825 0.90858 3.09714
upperback -1.12045 1.40408 0.786242
thorax -3.37682 0.642809 -1.02277
lowerneck -8.92939 -1.86699 -0.329407
upperneck 22.4044 -3.71337 5.06179
head 8.5392 -1.28325 1.38549
rclavicle -4.42296e-015 -4.37326e-015
rhumerus -38.3869 1.60809 -75.3577
rradius 94.1376
rwrist -18.2841
rhand -5.02726 -25.4002
rfingers 7.12502
rthumb 20.7672 -54.3089
lclavicle -4.42296e-015 -4.37326e-015
lhumerus -42.6504 -12.4159 85.4703
lradius 84.1956
lwrist 21.3235
lhand -3.22004 -28.1672
lfingers 7.12502
lthumb 22.5028 0.541604
rfemur 0 0 0
rtibia 0
rfoot 0 0
rtoes 0
lfemur 17.7827 -6.33072 -12.2532
ltibia -18.0891
lfoot -3.63907 20.2595
ltoes -9.64262
92
root -0.954288 18.1628 5.59982 -0.430301 -3.07408 -4.68467
lowerback 3.97102 0.925893 3.0536
upperback -1.13577 1.42174 0.786611
thorax -3.34374 0.652877 -0.99764
lowerneck -8.74834 -1.97989 -0.286094
upperneck 23.1422 -3.97485 5.29443
head 8.77112 -1.36722 1.43657
rclavicle -8.15017e-015 -7.7526e-015
rhumerus -35.36 2.58229 -73.5235
rradius 98.0819
rwrist -20.3883
rhand -1.85332 -28.5468
rfingers 7.12502
rthumb 23.8141 -57.0909
lclavicle -8.15017e-015 -7.7526e-015
lhumerus -41.1041 -13.5244 83.9217
lradius 89.0712
lwrist 24.0138
lhand -5.0274 -29.6739
lfingers 7.12502
lthumb 20.7671 -0.765151
rfemur 0 0 0
rtibia 0
rfoot 0 0
rtoes 0
lfemur 17.7861 -6.36664 -12.3274
ltibia -18.0614
lfoot -3.68917 20.3331
ltoes -9.58052
93
root -0.956438 18.1618 5.59086 -0.517098 -3.12851 -4.64719
lowerback 3.97806 0.968562 3.04557
upperback -1.13465 1.47854 0.78848
thorax -3.34457 0.681322 -0.995087
lowerneck -8.51774 -2.17421 -0.341742
upperneck 23.7241 -4.34453 5.60081
head 8.95016 -1.50609 1.51854
rclavicle -2.56556e-015 9.93923e-016
rhumerus -31.954 3.4832 -71.5261
rradius 101.546
rwrist -22.4137
rhand -0.316686 -28.9615
rfingers 7.12502
rthumb 25.287 -57.3054
lclavicle -2.56556e-015 9.93923e-016
lhumerus -39.0717 -14.5196 82.1565
lradius 94.2392
lwrist 27.2027
lhand -6.84237 -30.1094
lfingers 7.12502
lthumb 19.0224 -1.01962
rfemur 0 0 0
rtibia 0
rfoot 0 0
rtoes 0
lfemur 17.8574 -6.3075 -12.3644
ltibia -18.0488
lfoot -3.68023 20.3292
ltoes -9.53167
94
root -0.96026 18.161 5.58091 -0.617208 -3.14899 -4.65371
lowerback 4.05276 1.00925 3.0804
upperback -1.15673 1.53835 0.791797
thorax -3.40649 0.709244 -1.01695
lowerneck -8.20518 -2.3725 -0.352649
upperneck 24.2077 -4.7294 5.92848
head 9.08288 -1.64873 1.59963
rclavicle 1.15233e-014 -5.76476e-015
rhumerus -28.2179 4.26326 -69.318
rradius 104.693
rwrist -25.1956
rhand -0.624457 -27.1149
rfingers 7.12502
rthumb 24.9921 -55.5002
lclavicle 1.15233e-014 -5.76476e-015
lhumerus -36.4237 -15.3699 80.1405
lradius 99.1994
lwrist 30.9449
lhand -8.61424 -30.5121
lfingers 7.12502
lthumb 17.3177 -1.26368
rfemur 0 0 0
rtibia 0
rfoot 0 0
rtoes 0
lfemur 17.9416 -6.27101 -12.346
ltibia -18.055
lfoot -3.64427 20.3029
ltoes -9.60219
95
root -0.963924 18.1601 5.5747 -0.679429 -3.18246 -4.70298
lowerback 4.07078 1.05224 3.13113
upperback -1.22121 1.60186 0.821528
thorax -3.48048 0.738346 -1.02013
lowerneck -7.9737 -2.56038 -0.422716
upperneck 24.9211 -5.15088 6.41176
head 9.32217 -1.78919 1.74275
rclavicle -8.63471e-015 -1.98785e-016
rhumerus -24.1149 4.90722 -66.898
rradius 107.486
rwrist -28.384
rhand -1.14715 -25.2674
rfingers 7.12502
rthumb 24.4912 -53.7215
lclavicle -8.63471e-015 -1.98785e-016
lhumerus -32.9762 -16.022 77.8613
lradius 103.656
lwrist 34.8138
lhand -10.1558 -30.6353
lfingers 7.12502
lthumb 15.8336 -1.26278
rfemur 0 0 0
rtibia 0
rfoot 0 0
rtoes 0
lfemur 18.0126 -6.28151 -12.2871
ltibia -18.0789
lfoot -3.64351 20.352
ltoes -9.5542
